<svg width="450" height="285" viewBox="0 0 450 285" fill="none" xmlns="http://www.w3.org/2000/svg" role="img" aria-labelledby="titleId descId">
  <title id="titleId">Repositories marcalexiei contributed to</title>
  <desc id="descId">scalar/scalar: 222 contributions, years: 2025, 2026; stats-organization/github-stats-extended: 107 contributions, years: 2026; stats-forge/github-stats-forge: 92 contributions, years: 2026; i18next/i18next: 78 contributions, years: 2022, 2023, 2024, 2026; elycruz/rollup-plugin-sass: 61 contributions, years: 2024, 2025; top 5 of 90 repositories &#183; 2016&#8211;2026</desc>
  <style>
    .header {
      font: 600 18px 'Segoe UI', Ubuntu, Sans-Serif;
      fill: #70a5fd;
      animation: fadeInAnimation 0.8s ease-in-out forwards;
    }
    @supports(-moz-appearance: auto) {
      /* Selector detects Firefox */
      .header {
        font-size: 15.5px;
      }
    }
    @keyframes growWidthAnimation {
      from {
        width: 0;
      }
      to {
        width: 100%;
      }
    }
    .repo-name {
      font: 400 13px 'Segoe UI', Ubuntu, Sans-Serif;
      fill: #38bdae;
    }
    .count {
      font: 600 13px 'Segoe UI', Ubuntu, Sans-Serif;
      fill: #38bdae;
      font-variant-numeric: tabular-nums;
    }
    .footer {
      font: 400 11px 'Segoe UI', Ubuntu, Sans-Serif;
      fill: #38bdae;
      opacity: 0.7;
    }
    @supports(-moz-appearance: auto) {
      /* Selector detects Firefox */
      .repo-name {
        font-size: 12px;
      }
      .count {
        font-size: 12px;
      }
    }
    .year-on {
      fill: #70a5fd;
    }
    .year-off {
      fill: #38bdae;
      opacity: 0.25;
    }
    .progress-background {
      fill: #ddd;
    }
    .lang-progress {
      fill: #70a5fd;
      animation: growWidthAnimation 0.6s ease-in-out forwards;
    }
    .stagger {
      opacity: 0;
      animation: fadeInAnimation 0.3s ease-in-out forwards;
    }
    .icon {
      fill: #bf91f3;
      display: block;
    }
    /* Animations */
    @keyframes scaleInAnimation {
      from {
        transform: translate(-5px, 5px) scale(0);
      }
      to {
        transform: translate(-5px, 5px) scale(1);
      }
    }
    @keyframes fadeInAnimation {
      from {
        opacity: 0;
      }
      to {
        opacity: 1;
      }
    }
    @media (prefers-reduced-motion: reduce) {
      * {
        animation-duration: 0s !important;
        animation-delay: 0s !important;
      }
    }
  </style>
  <rect data-testid="card-bg" class="card-bg" x="0.5" y="0.5" rx="8" height="99%" stroke="#ffffff26" width="449" fill="#1a1b27" stroke-opacity="1" />
  <g data-testid="card-title" transform="translate(25, 35)">
    <g>
      <svg class="icon" x="0" y="-13" viewBox="0 0 16 16" version="1.1" width="16" height="16">
        <path fill-rule="evenodd" d="M2 2.5A2.5 2.5 0 014.5 0h8.75a.75.75 0 01.75.75v12.5a.75.75 0 01-.75.75h-2.5a.75.75 0 110-1.5h1.75v-2h-8a1 1 0 00-.714 1.7.75.75 0 01-1.072 1.05A2.495 2.495 0 012 11.5v-9zm10.5-1V9h-8c-.356 0-.694.074-1 .208V2.5a1 1 0 011-1h8zM5 12.25v3.25a.25.25 0 00.4.2l1.45-1.087a.25.25 0 01.3 0L8.6 15.7a.25.25 0 00.4-.2v-3.25a.25.25 0 00-.25-.25h-3.5a.25.25 0 00-.25.25z" />
      </svg>
    </g>
    <g transform="translate(25, 0)">
      <text x="0" y="0" class="header" data-testid="header">Repositories marcalexiei contributed to</text>
    </g>
  </g>
  <g data-testid="main-card-body" transform="translate(0, 55)">
    <g data-testid="contributed-to-body" transform="translate(25, 0)">
      <g class="stagger" style="animation-delay: 450ms" transform="translate(0, 10)">
        <text class="repo-name" data-testid="repo-name" x="0" y="0">scalar/scalar</text>
        <svg width="130" x="212" y="-9">
          <rect data-testid="progress-background" class="progress-background" rx="5" ry="5" x="0" y="0" width="130" height="8" />
          <svg data-testid="lang-progress" width="100%">
            <rect height="8" rx="5" ry="5" x="0" y="0" class="lang-progress" style="animation-delay: 450ms;" />
          </svg>
        </svg>
        <text class="count" data-testid="repo-contributions" x="400" y="0" text-anchor="end">222</text>
        <g data-testid="year-strip" transform="translate(0, 8)">
          <rect data-testid="year-off" class="year-off" x="0" y="0" width="7" height="7" rx="1" ry="1" />
          <rect data-testid="year-off" class="year-off" x="10" y="0" width="7" height="7" rx="1" ry="1" />
          <rect data-testid="year-off" class="year-off" x="20" y="0" width="7" height="7" rx="1" ry="1" />
          <rect data-testid="year-off" class="year-off" x="30" y="0" width="7" height="7" rx="1" ry="1" />
          <rect data-testid="year-off" class="year-off" x="40" y="0" width="7" height="7" rx="1" ry="1" />
          <rect data-testid="year-off" class="year-off" x="50" y="0" width="7" height="7" rx="1" ry="1" />
          <rect data-testid="year-off" class="year-off" x="60" y="0" width="7" height="7" rx="1" ry="1" />
          <rect data-testid="year-off" class="year-off" x="70" y="0" width="7" height="7" rx="1" ry="1" />
          <rect data-testid="year-off" class="year-off" x="80" y="0" width="7" height="7" rx="1" ry="1" />
          <rect data-testid="year-on" class="year-on" x="90" y="0" width="7" height="7" rx="1" ry="1" />
          <rect data-testid="year-on" class="year-on" x="100" y="0" width="7" height="7" rx="1" ry="1" />
        </g>
      </g>
      <g class="stagger" style="animation-delay: 600ms" transform="translate(0, 48)">
        <text class="repo-name" data-testid="repo-name" x="0" y="0">stats-organization/github-stats-e&#8230;</text>
        <svg width="130" x="212" y="-9">
          <rect data-testid="progress-background" class="progress-background" rx="5" ry="5" x="0" y="0" width="130" height="8" />
          <svg data-testid="lang-progress" width="48.1981981981982%">
            <rect height="8" rx="5" ry="5" x="0" y="0" class="lang-progress" style="animation-delay: 600ms;" />
          </svg>
        </svg>
        <text class="count" data-testid="repo-contributions" x="400" y="0" text-anchor="end">107</text>
        <g data-testid="year-strip" transform="translate(0, 8)">
          <rect data-testid="year-off" class="year-off" x="0" y="0" width="7" height="7" rx="1" ry="1" />
          <rect data-testid="year-off" class="year-off" x="10" y="0" width="7" height="7" rx="1" ry="1" />
          <rect data-testid="year-off" class="year-off" x="20" y="0" width="7" height="7" rx="1" ry="1" />
          <rect data-testid="year-off" class="year-off" x="30" y="0" width="7" height="7" rx="1" ry="1" />
          <rect data-testid="year-off" class="year-off" x="40" y="0" width="7" height="7" rx="1" ry="1" />
          <rect data-testid="year-off" class="year-off" x="50" y="0" width="7" height="7" rx="1" ry="1" />
          <rect data-testid="year-off" class="year-off" x="60" y="0" width="7" height="7" rx="1" ry="1" />
          <rect data-testid="year-off" class="year-off" x="70" y="0" width="7" height="7" rx="1" ry="1" />
          <rect data-testid="year-off" class="year-off" x="80" y="0" width="7" height="7" rx="1" ry="1" />
          <rect data-testid="year-off" class="year-off" x="90" y="0" width="7" height="7" rx="1" ry="1" />
          <rect data-testid="year-on" class="year-on" x="100" y="0" width="7" height="7" rx="1" ry="1" />
        </g>
      </g>
      <g class="stagger" style="animation-delay: 750ms" transform="translate(0, 86)">
        <text class="repo-name" data-testid="repo-name" x="0" y="0">stats-forge/github-stats-forge</text>
        <svg width="130" x="212" y="-9">
          <rect data-testid="progress-background" class="progress-background" rx="5" ry="5" x="0" y="0" width="130" height="8" />
          <svg data-testid="lang-progress" width="41.44144144144144%">
            <rect height="8" rx="5" ry="5" x="0" y="0" class="lang-progress" style="animation-delay: 750ms;" />
          </svg>
        </svg>
        <text class="count" data-testid="repo-contributions" x="400" y="0" text-anchor="end">92</text>
        <g data-testid="year-strip" transform="translate(0, 8)">
          <rect data-testid="year-off" class="year-off" x="0" y="0" width="7" height="7" rx="1" ry="1" />
          <rect data-testid="year-off" class="year-off" x="10" y="0" width="7" height="7" rx="1" ry="1" />
          <rect data-testid="year-off" class="year-off" x="20" y="0" width="7" height="7" rx="1" ry="1" />
          <rect data-testid="year-off" class="year-off" x="30" y="0" width="7" height="7" rx="1" ry="1" />
          <rect data-testid="year-off" class="year-off" x="40" y="0" width="7" height="7" rx="1" ry="1" />
          <rect data-testid="year-off" class="year-off" x="50" y="0" width="7" height="7" rx="1" ry="1" />
          <rect data-testid="year-off" class="year-off" x="60" y="0" width="7" height="7" rx="1" ry="1" />
          <rect data-testid="year-off" class="year-off" x="70" y="0" width="7" height="7" rx="1" ry="1" />
          <rect data-testid="year-off" class="year-off" x="80" y="0" width="7" height="7" rx="1" ry="1" />
          <rect data-testid="year-off" class="year-off" x="90" y="0" width="7" height="7" rx="1" ry="1" />
          <rect data-testid="year-on" class="year-on" x="100" y="0" width="7" height="7" rx="1" ry="1" />
        </g>
      </g>
      <g class="stagger" style="animation-delay: 900ms" transform="translate(0, 124)">
        <text class="repo-name" data-testid="repo-name" x="0" y="0">i18next/i18next</text>
        <svg width="130" x="212" y="-9">
          <rect data-testid="progress-background" class="progress-background" rx="5" ry="5" x="0" y="0" width="130" height="8" />
          <svg data-testid="lang-progress" width="35.13513513513514%">
            <rect height="8" rx="5" ry="5" x="0" y="0" class="lang-progress" style="animation-delay: 900ms;" />
          </svg>
        </svg>
        <text class="count" data-testid="repo-contributions" x="400" y="0" text-anchor="end">78</text>
        <g data-testid="year-strip" transform="translate(0, 8)">
          <rect data-testid="year-off" class="year-off" x="0" y="0" width="7" height="7" rx="1" ry="1" />
          <rect data-testid="year-off" class="year-off" x="10" y="0" width="7" height="7" rx="1" ry="1" />
          <rect data-testid="year-off" class="year-off" x="20" y="0" width="7" height="7" rx="1" ry="1" />
          <rect data-testid="year-off" class="year-off" x="30" y="0" width="7" height="7" rx="1" ry="1" />
          <rect data-testid="year-off" class="year-off" x="40" y="0" width="7" height="7" rx="1" ry="1" />
          <rect data-testid="year-off" class="year-off" x="50" y="0" width="7" height="7" rx="1" ry="1" />
          <rect data-testid="year-on" class="year-on" x="60" y="0" width="7" height="7" rx="1" ry="1" />
          <rect data-testid="year-on" class="year-on" x="70" y="0" width="7" height="7" rx="1" ry="1" />
          <rect data-testid="year-on" class="year-on" x="80" y="0" width="7" height="7" rx="1" ry="1" />
          <rect data-testid="year-off" class="year-off" x="90" y="0" width="7" height="7" rx="1" ry="1" />
          <rect data-testid="year-on" class="year-on" x="100" y="0" width="7" height="7" rx="1" ry="1" />
        </g>
      </g>
      <g class="stagger" style="animation-delay: 1050ms" transform="translate(0, 162)">
        <text class="repo-name" data-testid="repo-name" x="0" y="0">elycruz/rollup-plugin-sass</text>
        <svg width="130" x="212" y="-9">
          <rect data-testid="progress-background" class="progress-background" rx="5" ry="5" x="0" y="0" width="130" height="8" />
          <svg data-testid="lang-progress" width="27.47747747747748%">
            <rect height="8" rx="5" ry="5" x="0" y="0" class="lang-progress" style="animation-delay: 1050ms;" />
          </svg>
        </svg>
        <text class="count" data-testid="repo-contributions" x="400" y="0" text-anchor="end">61</text>
        <g data-testid="year-strip" transform="translate(0, 8)">
          <rect data-testid="year-off" class="year-off" x="0" y="0" width="7" height="7" rx="1" ry="1" />
          <rect data-testid="year-off" class="year-off" x="10" y="0" width="7" height="7" rx="1" ry="1" />
          <rect data-testid="year-off" class="year-off" x="20" y="0" width="7" height="7" rx="1" ry="1" />
          <rect data-testid="year-off" class="year-off" x="30" y="0" width="7" height="7" rx="1" ry="1" />
          <rect data-testid="year-off" class="year-off" x="40" y="0" width="7" height="7" rx="1" ry="1" />
          <rect data-testid="year-off" class="year-off" x="50" y="0" width="7" height="7" rx="1" ry="1" />
          <rect data-testid="year-off" class="year-off" x="60" y="0" width="7" height="7" rx="1" ry="1" />
          <rect data-testid="year-off" class="year-off" x="70" y="0" width="7" height="7" rx="1" ry="1" />
          <rect data-testid="year-on" class="year-on" x="80" y="0" width="7" height="7" rx="1" ry="1" />
          <rect data-testid="year-on" class="year-on" x="90" y="0" width="7" height="7" rx="1" ry="1" />
          <rect data-testid="year-off" class="year-off" x="100" y="0" width="7" height="7" rx="1" ry="1" />
        </g>
      </g>
      <text class="footer" data-testid="footer" x="0" y="212">top 5 of 90 repositories &#183; 2016&#8211;2026</text>
    </g>
  </g>
</svg>
