<svg viewBox="88 86 336 336" xmlns="http://www.w3.org/2000/svg" xmlns:xlink="http://www.w3.org/1999/xlink"><linearGradient id="a" gradientUnits="userSpaceOnUse" x1="256" x2="256" y1="112" y2="396"><stop offset="0" stop-color="#8593aa"/><stop offset=".55" stop-color="#6b7a92"/><stop offset="1" stop-color="#515f76"/></linearGradient><linearGradient id="b" gradientUnits="userSpaceOnUse" x1="256" x2="256" y1="253" y2="375"><stop offset="0" stop-color="#8e9cb2"/><stop offset=".45" stop-color="#6f7d95"/><stop offset="1" stop-color="#525f76"/></linearGradient><linearGradient id="c" gradientUnits="userSpaceOnUse" x1="256" x2="256" y1="253" y2="261"><stop offset="0" stop-color="#a9b5c8"/><stop offset="1" stop-color="#8593aa"/></linearGradient><linearGradient id="d" gradientUnits="userSpaceOnUse" x1="192" x2="314" y1="254" y2="153"><stop offset="0" stop-color="#1747c9"/><stop offset=".5" stop-color="#2a6fe0"/><stop offset="1" stop-color="#3f93ea"/></linearGradient><circle cx="256" cy="254" fill="#fff" r="168"/><circle cx="256" cy="254" fill="#e9eff7" r="159"/><circle cx="256" cy="254" fill="none" r="139" stroke="url(#a)" stroke-width="10"/><g fill="url(#d)"><rect height="34" rx="2" width="24" x="192" y="220"/><rect height="57" rx="2" width="24" x="224" y="197"/><rect height="80" rx="2" width="25" x="256" y="174"/><rect height="101" rx="2" width="25" x="289" y="153"/></g><path d="m114 257h68v-4h148v4h68l-71 40c-17 2-40 6-45 16-4 12 8 24 17 31 8 6 21 8 21 13v14h-41v-6c0-9-50-9-50 0v6h-41v-14c0-5 13-7 21-13 9-7 21-19 17-31-5-10-28-14-45-16z" fill="url(#b)"/><path d="m182 253h148v7h-148z" fill="url(#c)"/><path d="m182 260v37m148-37v37" opacity=".5" stroke="#4a5872" stroke-width="2.5"/><path d="m188 361h136v5h-136z" fill="#a9b5c8" opacity=".9"/></svg>